<?xml version="1.0" standalone="no"?>
<!DOCTYPE svg PUBLIC "-//W3C//DTD SVG 20010904//EN"
 "http://www.w3.org/TR/2001/REC-SVG-20010904/DTD/svg10.dtd">
<svg version="1.0" xmlns="http://www.w3.org/2000/svg"
 width="1024.000000pt" height="1024.000000pt" viewBox="0 0 1024.000000 1024.000000"
 preserveAspectRatio="xMidYMid meet">
<metadata>
Created by potrace 1.14, written by Peter Selinger 2001-2017
</metadata>
<g transform="translate(0.000000,1024.000000) scale(0.100000,-0.100000)"
fill="#000000" stroke="none">
<path d="M0 5120 l0 -5120 5120 0 5120 0 0 5120 0 5120 -5120 0 -5120 0 0
-5120z m3493 1498 c389 -590 471 -715 502 -767 17 -28 33 -51 36 -51 4 0 76
105 160 233 84 127 258 391 386 585 l233 352 862 0 c933 0 957 -1 1143 -55
332 -95 635 -354 800 -683 99 -197 124 -301 132 -542 4 -135 2 -196 -11 -266
-31 -180 -99 -350 -203 -506 -63 -96 -248 -282 -343 -345 -210 -140 -437 -209
-727 -220 l-153 -6 0 -699 0 -698 -275 0 -275 0 0 1485 0 1485 275 0 275 0 0
-489 0 -489 68 -8 c183 -19 411 51 560 173 90 74 204 256 238 381 22 84 20
249 -5 344 -75 288 -326 510 -629 557 -45 7 -284 11 -661 11 l-591 0 0 -1725
0 -1725 -265 0 -265 0 0 1443 -1 1442 -25 -30 c-13 -16 -93 -129 -176 -250
-83 -121 -175 -254 -205 -295 l-53 -75 0 -722 0 -723 -275 0 -275 0 0 725 0
726 -183 267 c-101 147 -202 293 -223 324 -21 32 -42 57 -46 58 -5 0 -8 -650
-8 -1445 l0 -1445 -269 0 -269 0 -7 1223 c-4 672 -5 1458 -1 1747 3 289 5 643
6 788 l0 262 255 0 256 0 232 -352z m3674 -3079 c68 -26 138 -92 173 -164 33
-67 34 -179 3 -246 -66 -146 -231 -220 -388 -174 -76 22 -173 114 -198 189
-86 254 157 489 410 395z"/>
</g>
</svg>
